<mxfile host="app.diagrams.net" modified="2024-03-03T23:25:57.082Z" agent="Mozilla/5.0 (X11; Linux x86_64; rv:123.0) Gecko/20100101 Firefox/123.0" etag="HfDm9q4T0D7Op5K2wntM" version="23.1.5" type="device">
  <diagram name="Page-1" id="lZTFT9gZ9rjnMvj2AC0I">
    <mxGraphModel dx="1478" dy="789" grid="1" gridSize="10" guides="1" tooltips="1" connect="1" arrows="1" fold="1" page="0" pageScale="1" pageWidth="1100" pageHeight="850" math="1" shadow="0">
      <root>
        <mxCell id="0" />
        <mxCell id="1" parent="0" />
        <mxCell id="dgU6IexNNfNWmH5nQMm4-49" value="`255/51=|5|`" style="text;html=1;align=center;verticalAlign=middle;resizable=0;points=[];autosize=1;strokeColor=none;fillColor=none;fontSize=20;" vertex="1" parent="1">
          <mxGeometry x="690" y="530" width="130" height="40" as="geometry" />
        </mxCell>
        <mxCell id="dgU6IexNNfNWmH5nQMm4-50" value="" style="edgeStyle=none;orthogonalLoop=1;jettySize=auto;html=1;rounded=0;exitX=0.791;exitY=0.961;exitDx=0;exitDy=0;exitPerimeter=0;entryX=0.876;entryY=0.058;entryDx=0;entryDy=0;entryPerimeter=0;" edge="1" parent="1" source="dgU6IexNNfNWmH5nQMm4-49" target="dgU6IexNNfNWmH5nQMm4-67">
          <mxGeometry width="100" relative="1" as="geometry">
            <mxPoint x="710" y="590" as="sourcePoint" />
            <mxPoint x="599.9900000000002" y="858.3199999999999" as="targetPoint" />
            <Array as="points" />
          </mxGeometry>
        </mxCell>
        <mxCell id="dgU6IexNNfNWmH5nQMm4-69" value="`*51`" style="edgeLabel;html=1;align=center;verticalAlign=middle;resizable=0;points=[];fontSize=20;" vertex="1" connectable="0" parent="dgU6IexNNfNWmH5nQMm4-50">
          <mxGeometry x="-0.0155" y="-2" relative="1" as="geometry">
            <mxPoint as="offset" />
          </mxGeometry>
        </mxCell>
        <mxCell id="dgU6IexNNfNWmH5nQMm4-24" value="Result" style="whiteSpace=wrap;html=1;fillColor=#000000;fontColor=#FFFFFF;fontStyle=1;fontSize=20;" vertex="1" parent="1">
          <mxGeometry x="400" y="680" width="200" height="40" as="geometry" />
        </mxCell>
        <mxCell id="dgU6IexNNfNWmH5nQMm4-25" value="" style="whiteSpace=wrap;html=1;" vertex="1" parent="1">
          <mxGeometry x="400" y="730" width="200" height="120" as="geometry" />
        </mxCell>
        <mxCell id="dgU6IexNNfNWmH5nQMm4-41" value="" style="group" vertex="1" connectable="0" parent="1">
          <mxGeometry x="400" y="770" width="200" height="80" as="geometry" />
        </mxCell>
        <mxCell id="dgU6IexNNfNWmH5nQMm4-42" value="" style="rounded=0;whiteSpace=wrap;html=1;strokeColor=none;fillColor=#000000;" vertex="1" parent="dgU6IexNNfNWmH5nQMm4-41">
          <mxGeometry width="40" height="80" as="geometry" />
        </mxCell>
        <mxCell id="dgU6IexNNfNWmH5nQMm4-43" value="" style="rounded=0;whiteSpace=wrap;html=1;strokeColor=none;fillColor=#666666;" vertex="1" parent="dgU6IexNNfNWmH5nQMm4-41">
          <mxGeometry x="40" width="40" height="80" as="geometry" />
        </mxCell>
        <mxCell id="dgU6IexNNfNWmH5nQMm4-44" value="" style="rounded=0;whiteSpace=wrap;html=1;strokeColor=none;fillColor=#999999;" vertex="1" parent="dgU6IexNNfNWmH5nQMm4-41">
          <mxGeometry x="80" width="40" height="80" as="geometry" />
        </mxCell>
        <mxCell id="dgU6IexNNfNWmH5nQMm4-45" value="" style="rounded=0;whiteSpace=wrap;html=1;strokeColor=none;fillColor=#B3B3B3;" vertex="1" parent="dgU6IexNNfNWmH5nQMm4-41">
          <mxGeometry x="120" width="40" height="80" as="geometry" />
        </mxCell>
        <mxCell id="dgU6IexNNfNWmH5nQMm4-46" value="" style="rounded=0;whiteSpace=wrap;html=1;strokeColor=none;fillColor=#E6E6E6;" vertex="1" parent="dgU6IexNNfNWmH5nQMm4-41">
          <mxGeometry x="160" width="40" height="80" as="geometry" />
        </mxCell>
        <mxCell id="dgU6IexNNfNWmH5nQMm4-26" value="0" style="text;html=1;align=center;verticalAlign=middle;resizable=0;points=[];autosize=1;strokeColor=none;fillColor=none;" vertex="1" parent="1">
          <mxGeometry x="390" y="850" width="30" height="30" as="geometry" />
        </mxCell>
        <mxCell id="dgU6IexNNfNWmH5nQMm4-30" value="Histogram" style="text;html=1;align=center;verticalAlign=middle;resizable=0;points=[];autosize=1;strokeColor=none;fillColor=none;horizontal=0;" vertex="1" parent="1">
          <mxGeometry x="340" y="775" width="80" height="30" as="geometry" />
        </mxCell>
        <mxCell id="dgU6IexNNfNWmH5nQMm4-11" value="Posterize" style="whiteSpace=wrap;html=1;fillColor=#000000;fontColor=#FFFFFF;fontStyle=1;fontSize=20;" vertex="1" parent="1">
          <mxGeometry x="400" y="440" width="200" height="40" as="geometry" />
        </mxCell>
        <mxCell id="dgU6IexNNfNWmH5nQMm4-12" value="" style="whiteSpace=wrap;html=1;" vertex="1" parent="1">
          <mxGeometry x="400" y="490" width="200" height="120" as="geometry" />
        </mxCell>
        <mxCell id="dgU6IexNNfNWmH5nQMm4-13" value="0" style="text;html=1;align=center;verticalAlign=middle;resizable=0;points=[];autosize=1;strokeColor=none;fillColor=none;" vertex="1" parent="1">
          <mxGeometry x="390" y="610" width="30" height="30" as="geometry" />
        </mxCell>
        <mxCell id="dgU6IexNNfNWmH5nQMm4-14" value="255" style="text;html=1;align=center;verticalAlign=middle;resizable=0;points=[];autosize=1;strokeColor=none;fillColor=none;" vertex="1" parent="1">
          <mxGeometry x="570" y="610" width="40" height="30" as="geometry" />
        </mxCell>
        <mxCell id="dgU6IexNNfNWmH5nQMm4-16" value="" style="shape=or;whiteSpace=wrap;html=1;rotation=-90;fillColor=default;gradientColor=default;gradientDirection=north;strokeColor=none;" vertex="1" parent="1">
          <mxGeometry x="460" y="470" width="80" height="200" as="geometry" />
        </mxCell>
        <mxCell id="dgU6IexNNfNWmH5nQMm4-17" value="Histogram" style="text;html=1;align=center;verticalAlign=middle;resizable=0;points=[];autosize=1;strokeColor=none;fillColor=none;horizontal=0;" vertex="1" parent="1">
          <mxGeometry x="340" y="535" width="80" height="30" as="geometry" />
        </mxCell>
        <mxCell id="dgU6IexNNfNWmH5nQMm4-18" value="" style="endArrow=none;dashed=1;html=1;rounded=0;strokeWidth=3;" edge="1" parent="1">
          <mxGeometry width="50" height="50" relative="1" as="geometry">
            <mxPoint x="439.5" y="610" as="sourcePoint" />
            <mxPoint x="439.5" y="490" as="targetPoint" />
          </mxGeometry>
        </mxCell>
        <mxCell id="dgU6IexNNfNWmH5nQMm4-19" value="" style="endArrow=none;dashed=1;html=1;rounded=0;strokeWidth=3;" edge="1" parent="1">
          <mxGeometry width="50" height="50" relative="1" as="geometry">
            <mxPoint x="479.5" y="610" as="sourcePoint" />
            <mxPoint x="479.5" y="490" as="targetPoint" />
          </mxGeometry>
        </mxCell>
        <mxCell id="dgU6IexNNfNWmH5nQMm4-20" value="" style="endArrow=none;dashed=1;html=1;rounded=0;strokeWidth=3;" edge="1" parent="1">
          <mxGeometry width="50" height="50" relative="1" as="geometry">
            <mxPoint x="519.5" y="610" as="sourcePoint" />
            <mxPoint x="519.5" y="490" as="targetPoint" />
          </mxGeometry>
        </mxCell>
        <mxCell id="dgU6IexNNfNWmH5nQMm4-21" value="" style="endArrow=none;dashed=1;html=1;rounded=0;strokeWidth=3;" edge="1" parent="1">
          <mxGeometry width="50" height="50" relative="1" as="geometry">
            <mxPoint x="559.5" y="610" as="sourcePoint" />
            <mxPoint x="559.5" y="490" as="targetPoint" />
          </mxGeometry>
        </mxCell>
        <mxCell id="dgU6IexNNfNWmH5nQMm4-58" value="Color Index" style="text;html=1;align=center;verticalAlign=middle;resizable=0;points=[];autosize=1;strokeColor=none;fillColor=default;fontSize=9;" vertex="1" parent="1">
          <mxGeometry x="465" y="615" width="70" height="20" as="geometry" />
        </mxCell>
        <mxCell id="dgU6IexNNfNWmH5nQMm4-1" value="Palette" style="whiteSpace=wrap;html=1;fillColor=#000000;fontColor=#FFFFFF;fontStyle=1;fontSize=20;" vertex="1" parent="1">
          <mxGeometry x="400" y="200" width="200" height="40" as="geometry" />
        </mxCell>
        <mxCell id="dgU6IexNNfNWmH5nQMm4-2" value="" style="whiteSpace=wrap;html=1;" vertex="1" parent="1">
          <mxGeometry x="400" y="250" width="200" height="120" as="geometry" />
        </mxCell>
        <mxCell id="dgU6IexNNfNWmH5nQMm4-3" value="0" style="text;html=1;align=center;verticalAlign=middle;resizable=0;points=[];autosize=1;strokeColor=none;fillColor=none;" vertex="1" parent="1">
          <mxGeometry x="390" y="370" width="30" height="30" as="geometry" />
        </mxCell>
        <mxCell id="dgU6IexNNfNWmH5nQMm4-4" value="255" style="text;html=1;align=center;verticalAlign=middle;resizable=0;points=[];autosize=1;strokeColor=none;fillColor=none;" vertex="1" parent="1">
          <mxGeometry x="570" y="370" width="40" height="30" as="geometry" />
        </mxCell>
        <mxCell id="dgU6IexNNfNWmH5nQMm4-5" value="Color Index" style="text;html=1;align=center;verticalAlign=middle;resizable=0;points=[];autosize=1;strokeColor=none;fillColor=none;fontFamily=Helvetica;fontSize=9;fontColor=default;" vertex="1" parent="1">
          <mxGeometry x="460" y="370" width="80" height="30" as="geometry" />
        </mxCell>
        <mxCell id="dgU6IexNNfNWmH5nQMm4-7" value="" style="shape=or;whiteSpace=wrap;html=1;rotation=-90;fillColor=default;gradientColor=default;gradientDirection=north;strokeColor=none;" vertex="1" parent="1">
          <mxGeometry x="460" y="230" width="80" height="200" as="geometry" />
        </mxCell>
        <mxCell id="dgU6IexNNfNWmH5nQMm4-8" value="Histogram" style="text;html=1;align=center;verticalAlign=middle;resizable=0;points=[];autosize=1;strokeColor=none;fillColor=none;horizontal=0;" vertex="1" parent="1">
          <mxGeometry x="340" y="295" width="80" height="30" as="geometry" />
        </mxCell>
        <object label="On Top" id="dgU6IexNNfNWmH5nQMm4-60">
          <mxCell parent="0" />
        </object>
        <mxCell id="dgU6IexNNfNWmH5nQMm4-57" value="" style="rounded=0;whiteSpace=wrap;html=1;" vertex="1" parent="dgU6IexNNfNWmH5nQMm4-60">
          <mxGeometry x="400" y="880" width="200" height="60" as="geometry" />
        </mxCell>
        <mxCell id="dgU6IexNNfNWmH5nQMm4-51" value="1-51" style="text;html=1;align=center;verticalAlign=middle;resizable=0;points=[];autosize=1;strokeColor=none;fillColor=none;fontSize=7;" vertex="1" parent="dgU6IexNNfNWmH5nQMm4-60">
          <mxGeometry x="400" y="885" width="40" height="20" as="geometry" />
        </mxCell>
        <mxCell id="dgU6IexNNfNWmH5nQMm4-52" value="51-102" style="text;html=1;align=center;verticalAlign=middle;resizable=0;points=[];autosize=1;strokeColor=none;fillColor=none;fontSize=7;" vertex="1" parent="dgU6IexNNfNWmH5nQMm4-60">
          <mxGeometry x="435" y="885" width="50" height="20" as="geometry" />
        </mxCell>
        <mxCell id="dgU6IexNNfNWmH5nQMm4-53" value="102-153" style="text;align=center;verticalAlign=middle;resizable=0;points=[];autosize=1;strokeColor=none;fillColor=none;fontSize=7;html=1;labelPosition=center;verticalLabelPosition=middle;" vertex="1" parent="dgU6IexNNfNWmH5nQMm4-60">
          <mxGeometry x="475" y="885" width="50" height="20" as="geometry" />
        </mxCell>
        <mxCell id="dgU6IexNNfNWmH5nQMm4-54" value="153-204" style="text;align=center;verticalAlign=middle;resizable=0;points=[];autosize=1;strokeColor=none;fillColor=none;fontSize=7;html=1;labelPosition=center;verticalLabelPosition=middle;" vertex="1" parent="dgU6IexNNfNWmH5nQMm4-60">
          <mxGeometry x="515" y="885" width="50" height="20" as="geometry" />
        </mxCell>
        <mxCell id="dgU6IexNNfNWmH5nQMm4-55" value="204-255" style="text;align=center;verticalAlign=middle;resizable=0;points=[];autosize=1;strokeColor=none;fillColor=none;fontSize=7;html=1;labelPosition=center;verticalLabelPosition=middle;" vertex="1" parent="dgU6IexNNfNWmH5nQMm4-60">
          <mxGeometry x="555" y="885" width="50" height="20" as="geometry" />
        </mxCell>
        <object label="Dashes" id="dgU6IexNNfNWmH5nQMm4-59">
          <mxCell parent="0" />
        </object>
        <mxCell id="dgU6IexNNfNWmH5nQMm4-31" value="" style="endArrow=none;dashed=1;html=1;rounded=0;strokeWidth=3;" edge="1" parent="dgU6IexNNfNWmH5nQMm4-59">
          <mxGeometry width="50" height="50" relative="1" as="geometry">
            <mxPoint x="440" y="960" as="sourcePoint" />
            <mxPoint x="439.5" y="730" as="targetPoint" />
          </mxGeometry>
        </mxCell>
        <mxCell id="dgU6IexNNfNWmH5nQMm4-32" value="" style="endArrow=none;dashed=1;html=1;rounded=0;strokeWidth=3;" edge="1" parent="dgU6IexNNfNWmH5nQMm4-59">
          <mxGeometry width="50" height="50" relative="1" as="geometry">
            <mxPoint x="480" y="960" as="sourcePoint" />
            <mxPoint x="479.5" y="730" as="targetPoint" />
          </mxGeometry>
        </mxCell>
        <mxCell id="dgU6IexNNfNWmH5nQMm4-33" value="" style="endArrow=none;dashed=1;html=1;rounded=0;strokeWidth=3;" edge="1" parent="dgU6IexNNfNWmH5nQMm4-59">
          <mxGeometry width="50" height="50" relative="1" as="geometry">
            <mxPoint x="520" y="960" as="sourcePoint" />
            <mxPoint x="519.5" y="730" as="targetPoint" />
          </mxGeometry>
        </mxCell>
        <mxCell id="dgU6IexNNfNWmH5nQMm4-34" value="" style="endArrow=none;dashed=1;html=1;rounded=0;strokeWidth=3;" edge="1" parent="dgU6IexNNfNWmH5nQMm4-59">
          <mxGeometry width="50" height="50" relative="1" as="geometry">
            <mxPoint x="560" y="960" as="sourcePoint" />
            <mxPoint x="559.5" y="730" as="targetPoint" />
          </mxGeometry>
        </mxCell>
        <mxCell id="dgU6IexNNfNWmH5nQMm4-62" value="`t`" style="text;html=1;align=center;verticalAlign=middle;resizable=0;points=[];autosize=1;strokeColor=none;fillColor=none;fontSize=12;" vertex="1" parent="dgU6IexNNfNWmH5nQMm4-59">
          <mxGeometry x="590" y="360" width="30" height="30" as="geometry" />
        </mxCell>
        <mxCell id="dgU6IexNNfNWmH5nQMm4-63" value="`t`" style="text;html=1;align=center;verticalAlign=middle;resizable=0;points=[];autosize=1;strokeColor=none;fillColor=none;fontSize=12;" vertex="1" parent="dgU6IexNNfNWmH5nQMm4-59">
          <mxGeometry x="680" y="520" width="30" height="30" as="geometry" />
        </mxCell>
        <mxCell id="dgU6IexNNfNWmH5nQMm4-64" value="`n`" style="text;html=1;align=center;verticalAlign=middle;resizable=0;points=[];autosize=1;strokeColor=none;fillColor=none;fontSize=12;" vertex="1" parent="dgU6IexNNfNWmH5nQMm4-59">
          <mxGeometry x="790" y="520" width="40" height="30" as="geometry" />
        </mxCell>
        <mxCell id="dgU6IexNNfNWmH5nQMm4-65" value="`s`" style="text;html=1;align=center;verticalAlign=middle;resizable=0;points=[];autosize=1;strokeColor=none;fillColor=none;" vertex="1" parent="dgU6IexNNfNWmH5nQMm4-59">
          <mxGeometry x="690" y="568" width="40" height="30" as="geometry" />
        </mxCell>
        <mxCell id="dgU6IexNNfNWmH5nQMm4-66" value="FOR i=255 TO 0 STEP -51" style="text;html=1;align=center;verticalAlign=middle;resizable=0;points=[];autosize=1;strokeColor=none;fillColor=none;fontFamily=Courier New;fontStyle=1" vertex="1" parent="dgU6IexNNfNWmH5nQMm4-59">
          <mxGeometry x="840" y="530" width="190" height="30" as="geometry" />
        </mxCell>
        <mxCell id="dgU6IexNNfNWmH5nQMm4-67" value="`255`" style="text;html=1;align=center;verticalAlign=middle;resizable=0;points=[];autosize=1;strokeColor=none;fillColor=none;fontSize=20;" vertex="1" parent="dgU6IexNNfNWmH5nQMm4-59">
          <mxGeometry x="555" y="845" width="70" height="40" as="geometry" />
        </mxCell>
        <mxCell id="dgU6IexNNfNWmH5nQMm4-70" value="`1`" style="text;html=1;align=center;verticalAlign=middle;resizable=0;points=[];autosize=1;strokeColor=none;fillColor=none;" vertex="1" parent="dgU6IexNNfNWmH5nQMm4-59">
          <mxGeometry x="400" y="730" width="40" height="30" as="geometry" />
        </mxCell>
        <mxCell id="dgU6IexNNfNWmH5nQMm4-71" value="`2`" style="text;html=1;align=center;verticalAlign=middle;resizable=0;points=[];autosize=1;strokeColor=none;fillColor=none;" vertex="1" parent="dgU6IexNNfNWmH5nQMm4-59">
          <mxGeometry x="440" y="730" width="40" height="30" as="geometry" />
        </mxCell>
        <mxCell id="dgU6IexNNfNWmH5nQMm4-72" value="`3`" style="text;html=1;align=center;verticalAlign=middle;resizable=0;points=[];autosize=1;strokeColor=none;fillColor=none;" vertex="1" parent="dgU6IexNNfNWmH5nQMm4-59">
          <mxGeometry x="480" y="730" width="40" height="30" as="geometry" />
        </mxCell>
        <mxCell id="dgU6IexNNfNWmH5nQMm4-73" value="`4`" style="text;html=1;align=center;verticalAlign=middle;resizable=0;points=[];autosize=1;strokeColor=none;fillColor=none;" vertex="1" parent="dgU6IexNNfNWmH5nQMm4-59">
          <mxGeometry x="520" y="730" width="40" height="30" as="geometry" />
        </mxCell>
        <mxCell id="dgU6IexNNfNWmH5nQMm4-74" value="`5`" style="text;html=1;align=center;verticalAlign=middle;resizable=0;points=[];autosize=1;strokeColor=none;fillColor=none;" vertex="1" parent="dgU6IexNNfNWmH5nQMm4-59">
          <mxGeometry x="560" y="730" width="40" height="30" as="geometry" />
        </mxCell>
        <mxCell id="dgU6IexNNfNWmH5nQMm4-75" value="FOR i=t TO l STEP t \ -s" style="text;html=1;align=center;verticalAlign=middle;resizable=0;points=[];autosize=1;strokeColor=none;fillColor=none;fontFamily=Courier New;fontStyle=1" vertex="1" parent="dgU6IexNNfNWmH5nQMm4-59">
          <mxGeometry x="850" y="750" width="200" height="30" as="geometry" />
        </mxCell>
        <mxCell id="dgU6IexNNfNWmH5nQMm4-76" value="`1`" style="text;html=1;align=center;verticalAlign=middle;resizable=0;points=[];autosize=1;strokeColor=none;fillColor=none;" vertex="1" parent="dgU6IexNNfNWmH5nQMm4-59">
          <mxGeometry x="400" y="490" width="40" height="30" as="geometry" />
        </mxCell>
        <mxCell id="dgU6IexNNfNWmH5nQMm4-77" value="`2`" style="text;html=1;align=center;verticalAlign=middle;resizable=0;points=[];autosize=1;strokeColor=none;fillColor=none;" vertex="1" parent="dgU6IexNNfNWmH5nQMm4-59">
          <mxGeometry x="440" y="490" width="40" height="30" as="geometry" />
        </mxCell>
        <mxCell id="dgU6IexNNfNWmH5nQMm4-78" value="`3`" style="text;html=1;align=center;verticalAlign=middle;resizable=0;points=[];autosize=1;strokeColor=none;fillColor=none;" vertex="1" parent="dgU6IexNNfNWmH5nQMm4-59">
          <mxGeometry x="480" y="490" width="40" height="30" as="geometry" />
        </mxCell>
        <mxCell id="dgU6IexNNfNWmH5nQMm4-79" value="`4`" style="text;html=1;align=center;verticalAlign=middle;resizable=0;points=[];autosize=1;strokeColor=none;fillColor=none;" vertex="1" parent="dgU6IexNNfNWmH5nQMm4-59">
          <mxGeometry x="520" y="490" width="40" height="30" as="geometry" />
        </mxCell>
        <mxCell id="dgU6IexNNfNWmH5nQMm4-80" value="`5`" style="text;html=1;align=center;verticalAlign=middle;resizable=0;points=[];autosize=1;strokeColor=none;fillColor=none;" vertex="1" parent="dgU6IexNNfNWmH5nQMm4-59">
          <mxGeometry x="560" y="490" width="40" height="30" as="geometry" />
        </mxCell>
        <mxCell id="dgU6IexNNfNWmH5nQMm4-81" value="`t`" style="text;html=1;align=center;verticalAlign=middle;resizable=0;points=[];autosize=1;strokeColor=none;fillColor=none;fontSize=12;" vertex="1" parent="dgU6IexNNfNWmH5nQMm4-59">
          <mxGeometry x="895" y="542" width="30" height="30" as="geometry" />
        </mxCell>
        <mxCell id="dgU6IexNNfNWmH5nQMm4-82" value="`s`" style="text;html=1;align=center;verticalAlign=middle;resizable=0;points=[];autosize=1;strokeColor=none;fillColor=none;" vertex="1" parent="dgU6IexNNfNWmH5nQMm4-59">
          <mxGeometry x="990" y="542" width="40" height="30" as="geometry" />
        </mxCell>
        <mxCell id="dgU6IexNNfNWmH5nQMm4-83" value="`l`" style="text;html=1;align=center;verticalAlign=middle;resizable=0;points=[];autosize=1;strokeColor=none;fillColor=none;fontSize=12;" vertex="1" parent="dgU6IexNNfNWmH5nQMm4-59">
          <mxGeometry x="380" y="360" width="30" height="30" as="geometry" />
        </mxCell>
        <mxCell id="dgU6IexNNfNWmH5nQMm4-84" value="`l`" style="text;html=1;align=center;verticalAlign=middle;resizable=0;points=[];autosize=1;strokeColor=none;fillColor=none;fontSize=12;" vertex="1" parent="dgU6IexNNfNWmH5nQMm4-59">
          <mxGeometry x="935" y="542" width="30" height="30" as="geometry" />
        </mxCell>
        <mxCell id="dgU6IexNNfNWmH5nQMm4-86" value="" style="shape=curlyBracket;whiteSpace=wrap;html=1;rounded=1;flipH=1;labelPosition=right;verticalLabelPosition=middle;align=left;verticalAlign=middle;" vertex="1" parent="dgU6IexNNfNWmH5nQMm4-59">
          <mxGeometry x="1060" y="520" width="20" height="120" as="geometry" />
        </mxCell>
        <mxCell id="dgU6IexNNfNWmH5nQMm4-61" value="Untitled Layer" parent="0" />
        <mxCell id="dgU6IexNNfNWmH5nQMm4-56" value="Indexes snap to nearest 51&lt;font style=&quot;font-size: 10px;&quot;&gt;&lt;sup&gt;st&lt;/sup&gt;&lt;/font&gt; " style="text;html=1;align=center;verticalAlign=middle;resizable=0;points=[];autosize=1;strokeColor=none;fillColor=default;" vertex="1" parent="dgU6IexNNfNWmH5nQMm4-61">
          <mxGeometry x="415" y="905" width="170" height="30" as="geometry" />
        </mxCell>
        <mxCell id="dgU6IexNNfNWmH5nQMm4-28" value="Color Index" style="text;html=1;align=center;verticalAlign=middle;resizable=0;points=[];autosize=1;strokeColor=none;fillColor=default;fontSize=9;" vertex="1" parent="dgU6IexNNfNWmH5nQMm4-61">
          <mxGeometry x="465" y="855" width="70" height="20" as="geometry" />
        </mxCell>
      </root>
    </mxGraphModel>
  </diagram>
</mxfile>
